<svg width="213" height="124" viewBox="0 0 213 124" fill="none" xmlns="http://www.w3.org/2000/svg">
    <path d="M20.3125 1.5L32 34.5L43.625 1.5H55.9375V47H46.5312V34.5625L47.4688 13.0938L35.1875 47H28.75L16.5 13.125L17.4375 34.5625V47H8.0625V1.5H20.3125ZM83.125 47C82.7083 46.1875 82.4062 45.1771 82.2188 43.9688C80.0312 46.4062 77.1875 47.625 73.6875 47.625C70.375 47.625 67.625 46.6667 65.4375 44.75C63.2708 42.8333 62.1875 40.4167 62.1875 37.5C62.1875 33.9167 63.5104 31.1667 66.1562 29.25C68.8229 27.3333 72.6667 26.3646 77.6875 26.3438H81.8438V24.4062C81.8438 22.8438 81.4375 21.5938 80.625 20.6562C79.8333 19.7188 78.5729 19.25 76.8438 19.25C75.3229 19.25 74.125 19.6146 73.25 20.3438C72.3958 21.0729 71.9688 22.0729 71.9688 23.3438H62.9375C62.9375 21.3854 63.5417 19.5729 64.75 17.9062C65.9583 16.2396 67.6667 14.9375 69.875 14C72.0833 13.0417 74.5625 12.5625 77.3125 12.5625C81.4792 12.5625 84.7812 13.6146 87.2188 15.7188C89.6771 17.8021 90.9062 20.7396 90.9062 24.5312V39.1875C90.9271 42.3958 91.375 44.8229 92.25 46.4688V47H83.125ZM75.6562 40.7188C76.9896 40.7188 78.2188 40.4271 79.3438 39.8438C80.4688 39.2396 81.3021 38.4375 81.8438 37.4375V31.625H78.4688C73.9479 31.625 71.5417 33.1875 71.25 36.3125L71.2188 36.8438C71.2188 37.9688 71.6146 38.8958 72.4062 39.625C73.1979 40.3542 74.2812 40.7188 75.6562 40.7188ZM116.844 21.6562C115.615 21.4896 114.531 21.4062 113.594 21.4062C110.177 21.4062 107.938 22.5625 106.875 24.875V47H97.8438V13.1875H106.375L106.625 17.2188C108.438 14.1146 110.948 12.5625 114.156 12.5625C115.156 12.5625 116.094 12.6979 116.969 12.9688L116.844 21.6562ZM134.656 40.3438C136.323 40.3438 137.677 39.8854 138.719 38.9688C139.76 38.0521 140.302 36.8333 140.344 35.3125H148.812C148.792 37.6042 148.167 39.7083 146.938 41.625C145.708 43.5208 144.021 45 141.875 46.0625C139.75 47.1042 137.396 47.625 134.812 47.625C129.979 47.625 126.167 46.0938 123.375 43.0312C120.583 39.9479 119.188 35.6979 119.188 30.2812V29.6875C119.188 24.4792 120.573 20.3229 123.344 17.2188C126.115 14.1146 129.917 12.5625 134.75 12.5625C138.979 12.5625 142.365 13.7708 144.906 16.1875C147.469 18.5833 148.771 21.7812 148.812 25.7812H140.344C140.302 24.0312 139.76 22.6146 138.719 21.5312C137.677 20.4271 136.302 19.875 134.594 19.875C132.49 19.875 130.896 20.6458 129.812 22.1875C128.75 23.7083 128.219 26.1875 128.219 29.625V30.5625C128.219 34.0417 128.75 36.5417 129.812 38.0625C130.875 39.5833 132.49 40.3438 134.656 40.3438ZM152.562 29.7812C152.562 26.4271 153.208 23.4375 154.5 20.8125C155.792 18.1875 157.646 16.1562 160.062 14.7188C162.5 13.2812 165.323 12.5625 168.531 12.5625C173.094 12.5625 176.812 13.9583 179.688 16.75C182.583 19.5417 184.198 23.3333 184.531 28.125L184.594 30.4375C184.594 35.625 183.146 39.7917 180.25 42.9375C177.354 46.0625 173.469 47.625 168.594 47.625C163.719 47.625 159.823 46.0625 156.906 42.9375C154.01 39.8125 152.562 35.5625 152.562 30.1875V29.7812ZM161.594 30.4375C161.594 33.6458 162.198 36.1042 163.406 37.8125C164.615 39.5 166.344 40.3438 168.594 40.3438C170.781 40.3438 172.49 39.5104 173.719 37.8438C174.948 36.1562 175.562 33.4688 175.562 29.7812C175.562 26.6354 174.948 24.1979 173.719 22.4688C172.49 20.7396 170.76 19.875 168.531 19.875C166.323 19.875 164.615 20.7396 163.406 22.4688C162.198 24.1771 161.594 26.8333 161.594 30.4375ZM43.7812 106.844C43.4271 111.74 41.6146 115.594 38.3438 118.406C35.0938 121.219 30.8021 122.625 25.4688 122.625C19.6354 122.625 15.0417 120.667 11.6875 116.75C8.35417 112.812 6.6875 107.417 6.6875 100.562V97.7812C6.6875 93.4062 7.45833 89.5521 9 86.2188C10.5417 82.8854 12.7396 80.3333 15.5938 78.5625C18.4688 76.7708 21.8021 75.875 25.5938 75.875C30.8438 75.875 35.0729 77.2812 38.2812 80.0938C41.4896 82.9062 43.3438 86.8542 43.8438 91.9375H34.4688C34.2396 89 33.4167 86.875 32 85.5625C30.6042 84.2292 28.4688 83.5625 25.5938 83.5625C22.4688 83.5625 20.125 84.6875 18.5625 86.9375C17.0208 89.1667 16.2292 92.6354 16.1875 97.3438V100.781C16.1875 105.698 16.9271 109.292 18.4062 111.562C19.9062 113.833 22.2604 114.969 25.4688 114.969C28.3646 114.969 30.5208 114.312 31.9375 113C33.375 111.667 34.1979 109.615 34.4062 106.844H43.7812ZM58.1562 91.875C60.5521 89 63.5625 87.5625 67.1875 87.5625C74.5208 87.5625 78.2396 91.8229 78.3438 100.344V122H69.3125V100.594C69.3125 98.6562 68.8958 97.2292 68.0625 96.3125C67.2292 95.375 65.8438 94.9062 63.9062 94.9062C61.2604 94.9062 59.3438 95.9271 58.1562 97.9688V122H49.125V74H58.1562V91.875ZM104.75 122C104.333 121.188 104.031 120.177 103.844 118.969C101.656 121.406 98.8125 122.625 95.3125 122.625C92 122.625 89.25 121.667 87.0625 119.75C84.8958 117.833 83.8125 115.417 83.8125 112.5C83.8125 108.917 85.1354 106.167 87.7812 104.25C90.4479 102.333 94.2917 101.365 99.3125 101.344H103.469V99.4062C103.469 97.8438 103.062 96.5938 102.25 95.6562C101.458 94.7188 100.198 94.25 98.4688 94.25C96.9479 94.25 95.75 94.6146 94.875 95.3438C94.0208 96.0729 93.5938 97.0729 93.5938 98.3438H84.5625C84.5625 96.3854 85.1667 94.5729 86.375 92.9062C87.5833 91.2396 89.2917 89.9375 91.5 89C93.7083 88.0417 96.1875 87.5625 98.9375 87.5625C103.104 87.5625 106.406 88.6146 108.844 90.7188C111.302 92.8021 112.531 95.7396 112.531 99.5312V114.188C112.552 117.396 113 119.823 113.875 121.469V122H104.75ZM97.2812 115.719C98.6146 115.719 99.8438 115.427 100.969 114.844C102.094 114.24 102.927 113.438 103.469 112.438V106.625H100.094C95.5729 106.625 93.1667 108.188 92.875 111.312L92.8438 111.844C92.8438 112.969 93.2396 113.896 94.0312 114.625C94.8229 115.354 95.9062 115.719 97.2812 115.719ZM131.625 110.969L137.906 88.1875H147.344L135.938 122H127.312L115.906 88.1875H125.344L131.625 110.969ZM166.469 122.625C161.51 122.625 157.469 121.104 154.344 118.062C151.24 115.021 149.688 110.969 149.688 105.906V105.031C149.688 101.635 150.344 98.6042 151.656 95.9375C152.969 93.25 154.823 91.1875 157.219 89.75C159.635 88.2917 162.385 87.5625 165.469 87.5625C170.094 87.5625 173.729 89.0208 176.375 91.9375C179.042 94.8542 180.375 98.9896 180.375 104.344V108.031H158.844C159.135 110.24 160.01 112.01 161.469 113.344C162.948 114.677 164.812 115.344 167.062 115.344C170.542 115.344 173.26 114.083 175.219 111.562L179.656 116.531C178.302 118.448 176.469 119.948 174.156 121.031C171.844 122.094 169.281 122.625 166.469 122.625ZM165.438 94.875C163.646 94.875 162.188 95.4792 161.062 96.6875C159.958 97.8958 159.25 99.625 158.938 101.875H171.5V101.156C171.458 99.1562 170.917 97.6146 169.875 96.5312C168.833 95.4271 167.354 94.875 165.438 94.875ZM195.906 114.719H212.438V122H184.375V116.5L200.281 95.5H184.844V88.1875H211.938V93.5312L195.906 114.719Z" fill="#81FF86"/>
    <path d="M15.3125 1.5L27 34.5L38.625 1.5H50.9375V47H41.5312V34.5625L42.4688 13.0938L30.1875 47H23.75L11.5 13.125L12.4375 34.5625V47H3.0625V1.5H15.3125ZM78.125 47C77.7083 46.1875 77.4062 45.1771 77.2188 43.9688C75.0312 46.4062 72.1875 47.625 68.6875 47.625C65.375 47.625 62.625 46.6667 60.4375 44.75C58.2708 42.8333 57.1875 40.4167 57.1875 37.5C57.1875 33.9167 58.5104 31.1667 61.1562 29.25C63.8229 27.3333 67.6667 26.3646 72.6875 26.3438H76.8438V24.4062C76.8438 22.8438 76.4375 21.5938 75.625 20.6562C74.8333 19.7188 73.5729 19.25 71.8438 19.25C70.3229 19.25 69.125 19.6146 68.25 20.3438C67.3958 21.0729 66.9688 22.0729 66.9688 23.3438H57.9375C57.9375 21.3854 58.5417 19.5729 59.75 17.9062C60.9583 16.2396 62.6667 14.9375 64.875 14C67.0833 13.0417 69.5625 12.5625 72.3125 12.5625C76.4792 12.5625 79.7812 13.6146 82.2188 15.7188C84.6771 17.8021 85.9062 20.7396 85.9062 24.5312V39.1875C85.9271 42.3958 86.375 44.8229 87.25 46.4688V47H78.125ZM70.6562 40.7188C71.9896 40.7188 73.2188 40.4271 74.3438 39.8438C75.4688 39.2396 76.3021 38.4375 76.8438 37.4375V31.625H73.4688C68.9479 31.625 66.5417 33.1875 66.25 36.3125L66.2188 36.8438C66.2188 37.9688 66.6146 38.8958 67.4062 39.625C68.1979 40.3542 69.2812 40.7188 70.6562 40.7188ZM111.844 21.6562C110.615 21.4896 109.531 21.4062 108.594 21.4062C105.177 21.4062 102.938 22.5625 101.875 24.875V47H92.8438V13.1875H101.375L101.625 17.2188C103.438 14.1146 105.948 12.5625 109.156 12.5625C110.156 12.5625 111.094 12.6979 111.969 12.9688L111.844 21.6562ZM129.656 40.3438C131.323 40.3438 132.677 39.8854 133.719 38.9688C134.76 38.0521 135.302 36.8333 135.344 35.3125H143.812C143.792 37.6042 143.167 39.7083 141.938 41.625C140.708 43.5208 139.021 45 136.875 46.0625C134.75 47.1042 132.396 47.625 129.812 47.625C124.979 47.625 121.167 46.0938 118.375 43.0312C115.583 39.9479 114.188 35.6979 114.188 30.2812V29.6875C114.188 24.4792 115.573 20.3229 118.344 17.2188C121.115 14.1146 124.917 12.5625 129.75 12.5625C133.979 12.5625 137.365 13.7708 139.906 16.1875C142.469 18.5833 143.771 21.7812 143.812 25.7812H135.344C135.302 24.0312 134.76 22.6146 133.719 21.5312C132.677 20.4271 131.302 19.875 129.594 19.875C127.49 19.875 125.896 20.6458 124.812 22.1875C123.75 23.7083 123.219 26.1875 123.219 29.625V30.5625C123.219 34.0417 123.75 36.5417 124.812 38.0625C125.875 39.5833 127.49 40.3438 129.656 40.3438ZM147.562 29.7812C147.562 26.4271 148.208 23.4375 149.5 20.8125C150.792 18.1875 152.646 16.1562 155.062 14.7188C157.5 13.2812 160.323 12.5625 163.531 12.5625C168.094 12.5625 171.812 13.9583 174.688 16.75C177.583 19.5417 179.198 23.3333 179.531 28.125L179.594 30.4375C179.594 35.625 178.146 39.7917 175.25 42.9375C172.354 46.0625 168.469 47.625 163.594 47.625C158.719 47.625 154.823 46.0625 151.906 42.9375C149.01 39.8125 147.562 35.5625 147.562 30.1875V29.7812ZM156.594 30.4375C156.594 33.6458 157.198 36.1042 158.406 37.8125C159.615 39.5 161.344 40.3438 163.594 40.3438C165.781 40.3438 167.49 39.5104 168.719 37.8438C169.948 36.1562 170.562 33.4688 170.562 29.7812C170.562 26.6354 169.948 24.1979 168.719 22.4688C167.49 20.7396 165.76 19.875 163.531 19.875C161.323 19.875 159.615 20.7396 158.406 22.4688C157.198 24.1771 156.594 26.8333 156.594 30.4375ZM38.7812 106.844C38.4271 111.74 36.6146 115.594 33.3438 118.406C30.0938 121.219 25.8021 122.625 20.4688 122.625C14.6354 122.625 10.0417 120.667 6.6875 116.75C3.35417 112.812 1.6875 107.417 1.6875 100.562V97.7812C1.6875 93.4062 2.45833 89.5521 4 86.2188C5.54167 82.8854 7.73958 80.3333 10.5938 78.5625C13.4688 76.7708 16.8021 75.875 20.5938 75.875C25.8438 75.875 30.0729 77.2812 33.2812 80.0938C36.4896 82.9062 38.3438 86.8542 38.8438 91.9375H29.4688C29.2396 89 28.4167 86.875 27 85.5625C25.6042 84.2292 23.4688 83.5625 20.5938 83.5625C17.4688 83.5625 15.125 84.6875 13.5625 86.9375C12.0208 89.1667 11.2292 92.6354 11.1875 97.3438V100.781C11.1875 105.698 11.9271 109.292 13.4062 111.562C14.9062 113.833 17.2604 114.969 20.4688 114.969C23.3646 114.969 25.5208 114.312 26.9375 113C28.375 111.667 29.1979 109.615 29.4062 106.844H38.7812ZM53.1562 91.875C55.5521 89 58.5625 87.5625 62.1875 87.5625C69.5208 87.5625 73.2396 91.8229 73.3438 100.344V122H64.3125V100.594C64.3125 98.6562 63.8958 97.2292 63.0625 96.3125C62.2292 95.375 60.8438 94.9062 58.9062 94.9062C56.2604 94.9062 54.3438 95.9271 53.1562 97.9688V122H44.125V74H53.1562V91.875ZM99.75 122C99.3333 121.188 99.0312 120.177 98.8438 118.969C96.6562 121.406 93.8125 122.625 90.3125 122.625C87 122.625 84.25 121.667 82.0625 119.75C79.8958 117.833 78.8125 115.417 78.8125 112.5C78.8125 108.917 80.1354 106.167 82.7812 104.25C85.4479 102.333 89.2917 101.365 94.3125 101.344H98.4688V99.4062C98.4688 97.8438 98.0625 96.5938 97.25 95.6562C96.4583 94.7188 95.1979 94.25 93.4688 94.25C91.9479 94.25 90.75 94.6146 89.875 95.3438C89.0208 96.0729 88.5938 97.0729 88.5938 98.3438H79.5625C79.5625 96.3854 80.1667 94.5729 81.375 92.9062C82.5833 91.2396 84.2917 89.9375 86.5 89C88.7083 88.0417 91.1875 87.5625 93.9375 87.5625C98.1042 87.5625 101.406 88.6146 103.844 90.7188C106.302 92.8021 107.531 95.7396 107.531 99.5312V114.188C107.552 117.396 108 119.823 108.875 121.469V122H99.75ZM92.2812 115.719C93.6146 115.719 94.8438 115.427 95.9688 114.844C97.0938 114.24 97.9271 113.438 98.4688 112.438V106.625H95.0938C90.5729 106.625 88.1667 108.188 87.875 111.312L87.8438 111.844C87.8438 112.969 88.2396 113.896 89.0312 114.625C89.8229 115.354 90.9062 115.719 92.2812 115.719ZM126.625 110.969L132.906 88.1875H142.344L130.938 122H122.312L110.906 88.1875H120.344L126.625 110.969ZM161.469 122.625C156.51 122.625 152.469 121.104 149.344 118.062C146.24 115.021 144.688 110.969 144.688 105.906V105.031C144.688 101.635 145.344 98.6042 146.656 95.9375C147.969 93.25 149.823 91.1875 152.219 89.75C154.635 88.2917 157.385 87.5625 160.469 87.5625C165.094 87.5625 168.729 89.0208 171.375 91.9375C174.042 94.8542 175.375 98.9896 175.375 104.344V108.031H153.844C154.135 110.24 155.01 112.01 156.469 113.344C157.948 114.677 159.812 115.344 162.062 115.344C165.542 115.344 168.26 114.083 170.219 111.562L174.656 116.531C173.302 118.448 171.469 119.948 169.156 121.031C166.844 122.094 164.281 122.625 161.469 122.625ZM160.438 94.875C158.646 94.875 157.188 95.4792 156.062 96.6875C154.958 97.8958 154.25 99.625 153.938 101.875H166.5V101.156C166.458 99.1562 165.917 97.6146 164.875 96.5312C163.833 95.4271 162.354 94.875 160.438 94.875ZM190.906 114.719H207.438V122H179.375V116.5L195.281 95.5H179.844V88.1875H206.938V93.5312L190.906 114.719Z" fill="#FFC9F3"/>
    <path d="M15.3125 1.5L16.2551 1.16615L16.0192 0.5H15.3125V1.5ZM27 34.5L26.0574 34.8338L27.0025 37.5025L27.9432 34.8323L27 34.5ZM38.625 1.5V0.5H37.917L37.6818 1.16774L38.625 1.5ZM50.9375 1.5H51.9375V0.5H50.9375V1.5ZM50.9375 47V48H51.9375V47H50.9375ZM41.5312 47H40.5312V48H41.5312V47ZM41.5312 34.5625L40.5322 34.5189L40.5312 34.5407V34.5625H41.5312ZM42.4688 13.0938L43.4678 13.1374L41.5285 12.7532L42.4688 13.0938ZM30.1875 47V48H30.8889L31.1277 47.3406L30.1875 47ZM23.75 47L22.8096 47.3401L23.0482 48H23.75V47ZM11.5 13.125L12.4404 12.7849L10.501 13.1687L11.5 13.125ZM12.4375 34.5625H13.4375V34.5406L13.4365 34.5188L12.4375 34.5625ZM12.4375 47V48H13.4375V47H12.4375ZM3.0625 47H2.0625V48H3.0625V47ZM3.0625 1.5V0.5H2.0625V1.5H3.0625ZM14.3699 1.83385L26.0574 34.8338L27.9426 34.1662L16.2551 1.16615L14.3699 1.83385ZM27.9432 34.8323L39.5682 1.83226L37.6818 1.16774L26.0568 34.1677L27.9432 34.8323ZM38.625 2.5H50.9375V0.5H38.625V2.5ZM49.9375 1.5V47H51.9375V1.5H49.9375ZM50.9375 46H41.5312V48H50.9375V46ZM42.5312 47V34.5625H40.5312V47H42.5312ZM42.5303 34.6061L43.4678 13.1374L41.4697 13.0501L40.5322 34.5189L42.5303 34.6061ZM41.5285 12.7532L29.2473 46.6594L31.1277 47.3406L43.409 13.4343L41.5285 12.7532ZM30.1875 46H23.75V48H30.1875V46ZM24.6904 46.6599L12.4404 12.7849L10.5596 13.4651L22.8096 47.3401L24.6904 46.6599ZM10.501 13.1687L11.4385 34.6062L13.4365 34.5188L12.499 13.0813L10.501 13.1687ZM11.4375 34.5625V47H13.4375V34.5625H11.4375ZM12.4375 46H3.0625V48H12.4375V46ZM4.0625 47V1.5H2.0625V47H4.0625ZM3.0625 2.5H15.3125V0.5H3.0625V2.5ZM78.125 47L77.2352 47.4563L77.514 48H78.125V47ZM77.2188 43.9688L78.2069 43.8154L77.8835 41.7309L76.4745 43.3008L77.2188 43.9688ZM60.4375 44.75L59.7749 45.499L59.7785 45.5021L60.4375 44.75ZM61.1562 29.25L60.5726 28.438L60.5696 28.4402L61.1562 29.25ZM72.6875 26.3438L72.6875 25.3437L72.6834 25.3438L72.6875 26.3438ZM76.8438 26.3438V27.3438H77.8438V26.3438H76.8438ZM75.625 20.6562L74.8609 21.3015L74.8693 21.3112L75.625 20.6562ZM68.25 20.3438L67.6098 19.5755L67.6007 19.5832L68.25 20.3438ZM66.9688 23.3438V24.3438H67.9688V23.3438H66.9688ZM57.9375 23.3438H56.9375V24.3438H57.9375V23.3438ZM64.875 14L65.2658 14.9205L65.2731 14.9173L64.875 14ZM82.2188 15.7188L81.5653 16.4757L81.5722 16.4816L82.2188 15.7188ZM85.9062 39.1875L84.9062 39.1875L84.9063 39.194L85.9062 39.1875ZM87.25 46.4688H88.25V46.2194L88.133 45.9993L87.25 46.4688ZM87.25 47V48H88.25V47H87.25ZM74.3438 39.8438L74.8041 40.7315L74.8105 40.7282L74.8169 40.7247L74.3438 39.8438ZM76.8438 37.4375L77.723 37.9138L77.8438 37.6909V37.4375H76.8438ZM76.8438 31.625H77.8438V30.625H76.8438V31.625ZM66.25 36.3125L65.2543 36.2196L65.2527 36.2367L65.2517 36.2538L66.25 36.3125ZM66.2188 36.8438L65.2205 36.785L65.2188 36.8144V36.8438H66.2188ZM79.0148 46.5437C78.6603 45.8523 78.3832 44.9516 78.2069 43.8154L76.2306 44.1221C76.4293 45.4025 76.7564 46.5227 77.2352 47.4563L79.0148 46.5437ZM76.4745 43.3008C74.4909 45.5112 71.9255 46.625 68.6875 46.625V48.625C72.4495 48.625 75.5716 47.3013 77.963 44.6367L76.4745 43.3008ZM68.6875 46.625C65.5815 46.625 63.0763 45.7326 61.0965 43.9979L59.7785 45.5021C62.1737 47.6008 65.1685 48.625 68.6875 48.625V46.625ZM61.1001 44.001C59.15 42.2759 58.1875 40.1329 58.1875 37.5H56.1875C56.1875 40.7004 57.3917 43.3907 59.7749 45.499L61.1001 44.001ZM58.1875 37.5C58.1875 34.2012 59.3846 31.7682 61.7429 30.0598L60.5696 28.4402C57.6362 30.5651 56.1875 33.6321 56.1875 37.5H58.1875ZM61.7399 30.062C64.1697 28.3156 67.7757 27.3641 72.6916 27.3437L72.6834 25.3438C67.5577 25.365 63.4761 26.3511 60.5726 28.438L61.7399 30.062ZM72.6875 27.3438H76.8438V25.3438H72.6875V27.3438ZM77.8438 26.3438V24.4062H75.8438V26.3438H77.8438ZM77.8438 24.4062C77.8438 22.6676 77.3884 21.164 76.3807 20.0013L74.8693 21.3112C75.4866 22.0235 75.8438 23.0199 75.8438 24.4062H77.8438ZM76.389 20.0111C75.3391 18.7677 73.742 18.25 71.8438 18.25V20.25C73.4038 20.25 74.3276 20.6698 74.861 21.3014L76.389 20.0111ZM71.8438 18.25C70.1679 18.25 68.717 18.6529 67.6098 19.5755L68.8902 21.112C69.533 20.5763 70.478 20.25 71.8438 20.25V18.25ZM67.6007 19.5832C66.4932 20.5286 65.9688 21.8234 65.9688 23.3438H67.9688C67.9688 22.3225 68.2985 21.6172 68.8993 21.1043L67.6007 19.5832ZM66.9688 22.3438H57.9375V24.3438H66.9688V22.3438ZM58.9375 23.3438C58.9375 21.6075 59.4683 19.9985 60.5596 18.4932L58.9404 17.3193C57.615 19.1473 56.9375 21.1634 56.9375 23.3438H58.9375ZM60.5596 18.4932C61.6447 16.9966 63.1967 15.7989 65.2658 14.9205L64.4842 13.0795C62.1366 14.0761 60.272 15.4826 58.9404 17.3193L60.5596 18.4932ZM65.2731 14.9173C67.3391 14.0208 69.68 13.5625 72.3125 13.5625V11.5625C69.445 11.5625 66.8275 12.0626 64.4769 13.0827L65.2731 14.9173ZM72.3125 13.5625C76.3113 13.5625 79.3574 14.5697 81.5653 16.4757L82.8722 14.9618C80.2051 12.6594 76.647 11.5625 72.3125 11.5625V13.5625ZM81.5722 16.4816C83.7659 18.3407 84.9062 20.976 84.9062 24.5312H86.9062C86.9062 20.5032 85.5882 17.2634 82.8653 14.9559L81.5722 16.4816ZM84.9062 24.5312V39.1875H86.9062V24.5312H84.9062ZM84.9063 39.194C84.9275 42.4627 85.3799 45.0813 86.367 46.9382L88.133 45.9993C87.3701 44.5645 86.9267 42.3289 86.9062 39.181L84.9063 39.194ZM86.25 46.4688V47H88.25V46.4688H86.25ZM87.25 46H78.125V48H87.25V46ZM70.6562 41.7188C72.1412 41.7188 73.5294 41.3925 74.8041 40.7315L73.8834 38.956C72.9081 39.4617 71.838 39.7188 70.6562 39.7188V41.7188ZM74.8169 40.7247C76.092 40.0399 77.0773 39.106 77.723 37.9138L75.9645 36.9612C75.5269 37.769 74.8455 38.4392 73.8706 38.9628L74.8169 40.7247ZM77.8438 37.4375V31.625H75.8438V37.4375H77.8438ZM76.8438 30.625H73.4688V32.625H76.8438V30.625ZM73.4688 30.625C71.1171 30.625 69.1625 31.0272 67.7288 31.9582C66.2429 32.9231 65.4255 34.3853 65.2543 36.2196L67.2457 36.4054C67.3661 35.1147 67.8978 34.2331 68.818 33.6356C69.7906 33.004 71.2995 32.625 73.4688 32.625V30.625ZM65.2517 36.2538L65.2205 36.785L67.217 36.9025L67.2483 36.3712L65.2517 36.2538ZM65.2188 36.8438C65.2188 38.2339 65.7213 39.4326 66.7288 40.3605L68.0837 38.8895C67.5079 38.3591 67.2188 37.7036 67.2188 36.8438H65.2188ZM66.7288 40.3605C67.752 41.303 69.1024 41.7188 70.6562 41.7188V39.7188C69.4601 39.7188 68.6438 39.4053 68.0837 38.8895L66.7288 40.3605ZM111.844 21.6562L111.709 22.6472L112.827 22.7988L112.844 21.6706L111.844 21.6562ZM101.875 24.875L100.966 24.4575L100.875 24.6563V24.875H101.875ZM101.875 47V48H102.875V47H101.875ZM92.8438 47H91.8438V48H92.8438V47ZM92.8438 13.1875V12.1875H91.8438V13.1875H92.8438ZM101.375 13.1875L102.373 13.1256L102.315 12.1875H101.375V13.1875ZM101.625 17.2188L100.627 17.2806L100.83 20.5627L102.489 17.723L101.625 17.2188ZM111.969 12.9688L112.969 12.9831L112.979 12.2348L112.264 12.0135L111.969 12.9688ZM111.978 20.6653C110.718 20.4944 109.588 20.4062 108.594 20.4062V22.4062C109.475 22.4062 110.511 22.4848 111.709 22.6472L111.978 20.6653ZM108.594 20.4062C104.945 20.4062 102.249 21.6655 100.966 24.4575L102.784 25.2925C103.626 23.4595 105.409 22.4062 108.594 22.4062V20.4062ZM100.875 24.875V47H102.875V24.875H100.875ZM101.875 46H92.8438V48H101.875V46ZM93.8438 47V13.1875H91.8438V47H93.8438ZM92.8438 14.1875H101.375V12.1875H92.8438V14.1875ZM100.377 13.2494L100.627 17.2806L102.623 17.1569L102.373 13.1256L100.377 13.2494ZM102.489 17.723C104.148 14.8813 106.352 13.5625 109.156 13.5625V11.5625C105.544 11.5625 102.727 13.3478 100.761 16.7145L102.489 17.723ZM109.156 13.5625C110.065 13.5625 110.902 13.6854 111.673 13.924L112.264 12.0135C111.285 11.7104 110.247 11.5625 109.156 11.5625V13.5625ZM110.969 12.9544L110.844 21.6419L112.844 21.6706L112.969 12.9831L110.969 12.9544ZM133.719 38.9688L133.058 38.218L133.719 38.9688ZM135.344 35.3125V34.3125H134.371L134.344 35.2851L135.344 35.3125ZM143.812 35.3125L144.812 35.3216L144.822 34.3125H143.812V35.3125ZM141.938 41.625L142.777 42.169L142.779 42.1648L141.938 41.625ZM136.875 46.0625L137.315 46.9604L137.319 46.9587L136.875 46.0625ZM118.375 43.0312L117.634 43.7024L117.636 43.7049L118.375 43.0312ZM118.344 17.2188L117.598 16.5528L118.344 17.2188ZM139.906 16.1875L139.217 16.9122L139.223 16.918L139.906 16.1875ZM143.812 25.7812V26.7812H144.823L144.812 25.7708L143.812 25.7812ZM135.344 25.7812L134.344 25.8051L134.367 26.7812H135.344V25.7812ZM133.719 21.5312L132.991 22.2175L132.998 22.2244L133.719 21.5312ZM124.812 22.1875L123.994 21.6126L123.993 21.6148L124.812 22.1875ZM129.656 41.3438C131.515 41.3438 133.12 40.8278 134.379 39.7195L133.058 38.218C132.234 38.9431 131.131 39.3438 129.656 39.3438V41.3438ZM134.379 39.7195C135.651 38.6004 136.295 37.1086 136.343 35.3399L134.344 35.2851C134.309 36.558 133.87 37.5037 133.058 38.218L134.379 39.7195ZM135.344 36.3125H143.812V34.3125H135.344V36.3125ZM142.813 35.3034C142.793 37.4081 142.223 39.3281 141.096 41.0852L142.779 42.1648C144.111 40.0886 144.79 37.8002 144.812 35.3216L142.813 35.3034ZM141.098 41.081C139.973 42.8169 138.426 44.1786 136.431 45.1663L137.319 46.9587C139.616 45.8214 141.444 44.2247 142.777 42.169L141.098 41.081ZM136.435 45.1646C134.459 46.1331 132.257 46.625 129.812 46.625V48.625C132.534 48.625 135.041 48.0752 137.315 46.9604L136.435 45.1646ZM129.812 46.625C125.209 46.625 121.684 45.1771 119.114 42.3576L117.636 43.7049C120.649 47.0104 124.749 48.625 129.812 48.625V46.625ZM119.116 42.3601C116.536 39.5107 115.188 35.5268 115.188 30.2812H113.188C113.188 35.869 114.63 40.3852 117.634 43.7024L119.116 42.3601ZM115.188 30.2812V29.6875H113.188V30.2812H115.188ZM115.188 29.6875C115.188 24.6606 116.521 20.7628 119.09 17.8847L117.598 16.5528C114.625 19.8831 113.188 24.2977 113.188 29.6875H115.188ZM119.09 17.8847C121.64 15.0282 125.151 13.5625 129.75 13.5625V11.5625C124.682 11.5625 120.59 13.201 117.598 16.5528L119.09 17.8847ZM129.75 13.5625C133.779 13.5625 136.898 14.7074 139.217 16.9122L140.595 15.4628C137.831 12.8342 134.18 11.5625 129.75 11.5625V13.5625ZM139.223 16.918C141.557 19.1003 142.773 22.0229 142.813 25.7917L144.812 25.7708C144.768 21.5396 143.38 18.0664 140.589 15.457L139.223 16.918ZM143.812 24.7812H135.344V26.7812H143.812V24.7812ZM136.343 25.7574C136.297 23.8012 135.683 22.1312 134.44 20.8381L132.998 22.2244C133.838 23.098 134.307 24.2613 134.344 25.8051L136.343 25.7574ZM134.446 20.845C133.191 19.5145 131.539 18.875 129.594 18.875V20.875C131.065 20.875 132.163 21.3397 132.991 22.2175L134.446 20.845ZM129.594 18.875C127.208 18.875 125.289 19.7702 123.994 21.6126L125.631 22.7624C126.503 21.5215 127.771 20.875 129.594 20.875V18.875ZM123.993 21.6148C122.749 23.3949 122.219 26.1331 122.219 29.625H124.219C124.219 26.2419 124.751 24.0218 125.632 22.7602L123.993 21.6148ZM122.219 29.625V30.5625H124.219V29.625H122.219ZM122.219 30.5625C122.219 34.093 122.748 36.8538 123.993 38.6352L125.632 37.4898C124.752 36.2296 124.219 33.9904 124.219 30.5625H122.219ZM123.993 38.6352C125.276 40.4716 127.226 41.3438 129.656 41.3438V39.3438C127.753 39.3438 126.474 38.6951 125.632 37.4898L123.993 38.6352ZM149.5 20.8125L148.603 20.371L149.5 20.8125ZM155.062 14.7188L154.555 13.8574L154.551 13.8593L155.062 14.7188ZM174.688 16.75L173.991 17.4674L173.993 17.4699L174.688 16.75ZM179.531 28.125L180.531 28.098L180.53 28.0768L180.529 28.0556L179.531 28.125ZM179.594 30.4375H180.594V30.424L180.593 30.4105L179.594 30.4375ZM175.25 42.9375L175.983 43.6172L175.986 43.6148L175.25 42.9375ZM151.906 42.9375L151.173 43.6172L151.175 43.6198L151.906 42.9375ZM158.406 37.8125L157.59 38.39L157.593 38.3947L158.406 37.8125ZM168.719 37.8438L169.524 38.4373L169.527 38.4325L168.719 37.8438ZM158.406 22.4688L159.223 23.0462L159.226 23.0415L158.406 22.4688ZM148.562 29.7812C148.562 26.5577 149.182 23.7228 150.397 21.254L148.603 20.371C147.234 23.1522 146.562 26.2965 146.562 29.7812H148.562ZM150.397 21.254C151.607 18.7953 153.33 16.9126 155.574 15.5782L154.551 13.8593C151.961 15.3999 149.976 17.5797 148.603 20.371L150.397 21.254ZM155.57 15.5801C157.834 14.245 160.477 13.5625 163.531 13.5625V11.5625C160.169 11.5625 157.166 12.3175 154.555 13.8574L155.57 15.5801ZM163.531 13.5625C167.873 13.5625 171.329 14.8824 173.991 17.4674L175.384 16.0326C172.296 13.0342 168.315 11.5625 163.531 11.5625V13.5625ZM173.993 17.4699C176.678 20.0576 178.214 23.5991 178.534 28.1944L180.529 28.0556C180.182 23.0676 178.489 19.0258 175.382 16.0301L173.993 17.4699ZM178.532 28.152L178.594 30.4645L180.593 30.4105L180.531 28.098L178.532 28.152ZM178.594 30.4375C178.594 35.4304 177.205 39.3367 174.514 42.2602L175.986 43.6148C179.086 40.2467 180.594 35.8196 180.594 30.4375H178.594ZM174.517 42.2578C171.838 45.1483 168.234 46.625 163.594 46.625V48.625C168.703 48.625 172.87 46.9767 175.983 43.6172L174.517 42.2578ZM163.594 46.625C158.953 46.625 155.338 45.1482 152.637 42.2552L151.175 43.6198C154.308 46.9768 158.484 48.625 163.594 48.625V46.625ZM152.64 42.2578C149.957 39.3625 148.562 35.3791 148.562 30.1875H146.562C146.562 35.7459 148.064 40.2625 151.173 43.6172L152.64 42.2578ZM148.562 30.1875V29.7812H146.562V30.1875H148.562ZM155.594 30.4375C155.594 33.7494 156.214 36.4445 157.59 38.39L159.223 37.235C158.182 35.7638 157.594 33.5422 157.594 30.4375H155.594ZM157.593 38.3947C159.007 40.3692 161.053 41.3438 163.594 41.3438V39.3438C161.635 39.3438 160.222 38.6308 159.219 37.2303L157.593 38.3947ZM163.594 41.3438C166.078 41.3438 168.094 40.376 169.524 38.4373L167.914 37.2502C166.885 38.6449 165.485 39.3438 163.594 39.3438V41.3438ZM169.527 38.4325C170.945 36.4862 171.562 33.537 171.562 29.7812H169.562C169.562 33.4005 168.951 35.8263 167.91 37.255L169.527 38.4325ZM171.562 29.7812C171.562 26.5229 170.929 23.8516 169.534 21.8894L167.904 23.0481C168.967 24.5442 169.562 26.7479 169.562 29.7812H171.562ZM169.534 21.8894C168.106 19.8809 166.065 18.875 163.531 18.875V20.875C165.456 20.875 166.873 21.5983 167.904 23.0481L169.534 21.8894ZM163.531 18.875C161.014 18.875 158.992 19.8845 157.587 21.896L159.226 23.0415C160.237 21.5946 161.631 20.875 163.531 20.875V18.875ZM157.59 21.8913C156.203 23.8518 155.594 26.7597 155.594 30.4375H157.594C157.594 26.907 158.193 24.5024 159.223 23.0462L157.59 21.8913ZM38.7812 106.844L39.7786 106.916L39.8562 105.844H38.7812V106.844ZM33.3438 118.406L32.6918 117.648L32.6894 117.65L33.3438 118.406ZM6.6875 116.75L5.92425 117.396L5.92796 117.4L6.6875 116.75ZM4 86.2188L3.09237 85.799L4 86.2188ZM10.5938 78.5625L11.121 79.4122L11.1226 79.4112L10.5938 78.5625ZM33.2812 80.0938L32.6221 80.8457L33.2812 80.0938ZM38.8438 91.9375V92.9375H39.9469L39.8389 91.8396L38.8438 91.9375ZM29.4688 91.9375L28.4718 92.0153L28.5437 92.9375H29.4688V91.9375ZM27 85.5625L26.3093 86.2856L26.3148 86.2909L26.3204 86.2961L27 85.5625ZM13.5625 86.9375L12.7411 86.3671L12.74 86.3687L13.5625 86.9375ZM11.1875 97.3438L10.1875 97.3349V97.3438H11.1875ZM13.4062 111.562L12.5683 112.108L12.5719 112.114L13.4062 111.562ZM26.9375 113L27.6171 113.734L27.6175 113.733L26.9375 113ZM29.4062 106.844V105.844H28.4786L28.4091 106.769L29.4062 106.844ZM37.7839 106.772C37.446 111.442 35.7323 115.034 32.6918 117.648L33.9957 119.164C37.4969 116.154 39.4082 112.037 39.7786 106.916L37.7839 106.772ZM32.6894 117.65C29.6619 120.27 25.6218 121.625 20.4688 121.625V123.625C25.9824 123.625 30.5256 122.167 33.9981 119.162L32.6894 117.65ZM20.4688 121.625C14.8846 121.625 10.585 119.764 7.44704 116.1L5.92796 117.4C9.49832 121.57 14.3862 123.625 20.4688 123.625V121.625ZM7.45073 116.104C4.31431 112.399 2.6875 107.259 2.6875 100.562H0.6875C0.6875 107.575 2.39402 113.226 5.92427 117.396L7.45073 116.104ZM2.6875 100.562V97.7812H0.6875V100.562H2.6875ZM2.6875 97.7812C2.6875 93.5239 3.43734 89.8175 4.90763 86.6385L3.09237 85.799C1.47933 89.2866 0.6875 93.2886 0.6875 97.7812H2.6875ZM4.90763 86.6385C6.37522 83.4654 8.44835 81.0704 11.121 79.4122L10.0665 77.7128C7.03081 79.5962 4.70811 82.3055 3.09237 85.799L4.90763 86.6385ZM11.1226 79.4112C13.8205 77.7299 16.9661 76.875 20.5938 76.875V74.875C16.6381 74.875 13.117 75.8118 10.0649 77.7138L11.1226 79.4112ZM20.5938 76.875C25.6594 76.875 29.6356 78.2277 32.6221 80.8457L33.9404 79.3418C30.5103 76.3348 26.0281 74.875 20.5938 74.875V76.875ZM32.6221 80.8457C35.6029 83.4588 37.3682 87.152 37.8486 92.0354L39.8389 91.8396C39.3193 86.5564 37.3763 82.3537 33.9404 79.3418L32.6221 80.8457ZM38.8438 90.9375H29.4688V92.9375H38.8438V90.9375ZM30.4657 91.8597C30.227 88.7994 29.3571 86.3831 27.6796 84.8289L26.3204 86.2961C27.4762 87.3669 28.2522 89.2006 28.4718 92.0153L30.4657 91.8597ZM27.6907 84.8394C26.0353 83.258 23.6021 82.5625 20.5938 82.5625V84.5625C23.3354 84.5625 25.1731 85.2003 26.3093 86.2856L27.6907 84.8394ZM20.5938 82.5625C17.1945 82.5625 14.519 83.8069 12.7411 86.3671L14.3839 87.5079C15.731 85.5681 17.743 84.5625 20.5938 84.5625V82.5625ZM12.74 86.3687C11.0278 88.8444 10.2298 92.5569 10.1875 97.3349L12.1875 97.3526C12.2285 92.714 13.0138 89.4889 14.385 87.5063L12.74 86.3687ZM10.1875 97.3438V100.781H12.1875V97.3438H10.1875ZM10.1875 100.781C10.1875 105.755 10.9278 109.59 12.5683 112.108L14.2442 111.017C12.9264 108.994 12.1875 105.64 12.1875 100.781H10.1875ZM12.5719 112.114C14.2923 114.718 16.9941 115.969 20.4688 115.969V113.969C17.5267 113.969 15.5202 112.948 14.2406 111.011L12.5719 112.114ZM20.4688 115.969C23.4936 115.969 25.9417 115.286 27.6171 113.734L26.2579 112.266C25.1 113.339 23.2356 113.969 20.4688 113.969V115.969ZM27.6175 113.733C29.3048 112.168 30.1841 109.836 30.4034 106.919L28.4091 106.769C28.2118 109.393 27.4452 111.165 26.2575 112.267L27.6175 113.733ZM29.4062 107.844H38.7812V105.844H29.4062V107.844ZM53.1562 91.875H52.1562V94.637L53.9245 92.5152L53.1562 91.875ZM73.3438 100.344H74.3438L74.3437 100.332L73.3438 100.344ZM73.3438 122V123H74.3438V122H73.3438ZM64.3125 122H63.3125V123H64.3125V122ZM63.0625 96.3125L62.315 96.9769L62.3226 96.9852L63.0625 96.3125ZM53.1562 97.9688L52.2918 97.466L52.1562 97.6991V97.9688H53.1562ZM53.1562 122V123H54.1562V122H53.1562ZM44.125 122H43.125V123H44.125V122ZM44.125 74V73H43.125V74H44.125ZM53.1562 74H54.1562V73H53.1562V74ZM53.9245 92.5152C56.1374 89.8597 58.8702 88.5625 62.1875 88.5625V86.5625C58.2548 86.5625 54.9668 88.1403 52.388 91.2348L53.9245 92.5152ZM62.1875 88.5625C65.6568 88.5625 68.1065 89.5633 69.7232 91.4154C71.364 93.2952 72.2932 96.2171 72.3438 100.356L74.3437 100.332C74.2901 95.9496 73.3079 92.4809 71.2299 90.1002C69.1278 87.6919 66.0515 86.5625 62.1875 86.5625V88.5625ZM72.3438 100.344V122H74.3438V100.344H72.3438ZM73.3438 121H64.3125V123H73.3438V121ZM65.3125 122V100.594H63.3125V122H65.3125ZM65.3125 100.594C65.3125 98.5419 64.8756 96.8204 63.8024 95.6398L62.3226 96.9852C62.916 97.638 63.3125 98.7706 63.3125 100.594H65.3125ZM63.8099 95.6481C62.7038 94.4038 60.9746 93.9062 58.9062 93.9062V95.9062C60.7129 95.9062 61.7545 96.3462 62.3151 96.9769L63.8099 95.6481ZM58.9062 93.9062C55.9559 93.9062 53.6829 95.0744 52.2918 97.466L54.0207 98.4715C55.0046 96.7798 56.565 95.9062 58.9062 95.9062V93.9062ZM52.1562 97.9688V122H54.1562V97.9688H52.1562ZM53.1562 121H44.125V123H53.1562V121ZM45.125 122V74H43.125V122H45.125ZM44.125 75H53.1562V73H44.125V75ZM52.1562 74V91.875H54.1562V74H52.1562ZM99.75 122L98.8602 122.456L99.139 123H99.75V122ZM98.8438 118.969L99.8319 118.815L99.5085 116.731L98.0995 118.301L98.8438 118.969ZM82.0625 119.75L81.3999 120.499L81.4035 120.502L82.0625 119.75ZM82.7812 104.25L82.1976 103.438L82.1946 103.44L82.7812 104.25ZM94.3125 101.344L94.3125 100.344L94.3084 100.344L94.3125 101.344ZM98.4688 101.344V102.344H99.4688V101.344H98.4688ZM97.25 95.6562L96.4859 96.3015L96.4943 96.3112L97.25 95.6562ZM89.875 95.3438L89.2348 94.5755L89.2257 94.5832L89.875 95.3438ZM88.5938 98.3438V99.3438H89.5938V98.3438H88.5938ZM79.5625 98.3438H78.5625V99.3438H79.5625V98.3438ZM86.5 89L86.8908 89.9205L86.8981 89.9173L86.5 89ZM103.844 90.7188L103.19 91.4757L103.197 91.4816L103.844 90.7188ZM107.531 114.188H106.531L106.531 114.194L107.531 114.188ZM108.875 121.469H109.875V121.219L109.758 120.999L108.875 121.469ZM108.875 122V123H109.875V122H108.875ZM95.9688 114.844L96.4291 115.732L96.4355 115.728L96.4419 115.725L95.9688 114.844ZM98.4688 112.438L99.348 112.914L99.4688 112.691V112.438H98.4688ZM98.4688 106.625H99.4688V105.625H98.4688V106.625ZM87.875 111.312L86.8793 111.22L86.8777 111.237L86.8767 111.254L87.875 111.312ZM87.8438 111.844L86.8455 111.785L86.8438 111.814V111.844H87.8438ZM100.64 121.544C100.285 120.852 100.008 119.952 99.8319 118.815L97.8556 119.122C98.0543 120.403 98.3814 121.523 98.8602 122.456L100.64 121.544ZM98.0995 118.301C96.1159 120.511 93.5505 121.625 90.3125 121.625V123.625C94.0745 123.625 97.1966 122.301 99.588 119.637L98.0995 118.301ZM90.3125 121.625C87.2065 121.625 84.7013 120.733 82.7215 118.998L81.4035 120.502C83.7987 122.601 86.7935 123.625 90.3125 123.625V121.625ZM82.7251 119.001C80.775 117.276 79.8125 115.133 79.8125 112.5H77.8125C77.8125 115.7 79.0167 118.391 81.3999 120.499L82.7251 119.001ZM79.8125 112.5C79.8125 109.201 81.0096 106.768 83.3679 105.06L82.1946 103.44C79.2612 105.565 77.8125 108.632 77.8125 112.5H79.8125ZM83.3649 105.062C85.7947 103.316 89.4007 102.364 94.3166 102.344L94.3084 100.344C89.1827 100.365 85.1011 101.351 82.1976 103.438L83.3649 105.062ZM94.3125 102.344H98.4688V100.344H94.3125V102.344ZM99.4688 101.344V99.4062H97.4688V101.344H99.4688ZM99.4688 99.4062C99.4688 97.6676 99.0134 96.164 98.0057 95.0013L96.4943 96.3112C97.1116 97.0235 97.4688 98.0199 97.4688 99.4062H99.4688ZM98.014 95.0111C96.9641 93.7677 95.367 93.25 93.4688 93.25V95.25C95.0288 95.25 95.9526 95.6698 96.486 96.3014L98.014 95.0111ZM93.4688 93.25C91.7929 93.25 90.342 93.6529 89.2348 94.5755L90.5152 96.112C91.158 95.5763 92.103 95.25 93.4688 95.25V93.25ZM89.2257 94.5832C88.1182 95.5286 87.5938 96.8234 87.5938 98.3438H89.5938C89.5938 97.3225 89.9235 96.6172 90.5243 96.1043L89.2257 94.5832ZM88.5938 97.3438H79.5625V99.3438H88.5938V97.3438ZM80.5625 98.3438C80.5625 96.6075 81.0933 94.9985 82.1846 93.4932L80.5654 92.3193C79.24 94.1473 78.5625 96.1634 78.5625 98.3438H80.5625ZM82.1846 93.4932C83.2697 91.9966 84.8217 90.7989 86.8908 89.9205L86.1092 88.0795C83.7616 89.0761 81.897 90.4826 80.5654 92.3193L82.1846 93.4932ZM86.8981 89.9173C88.9641 89.0208 91.305 88.5625 93.9375 88.5625V86.5625C91.07 86.5625 88.4525 87.0626 86.1019 88.0827L86.8981 89.9173ZM93.9375 88.5625C97.9363 88.5625 100.982 89.5697 103.19 91.4757L104.497 89.9618C101.83 87.6594 98.272 86.5625 93.9375 86.5625V88.5625ZM103.197 91.4816C105.391 93.3407 106.531 95.976 106.531 99.5312H108.531C108.531 95.5032 107.213 92.2634 104.49 89.9559L103.197 91.4816ZM106.531 99.5312V114.188H108.531V99.5312H106.531ZM106.531 114.194C106.552 117.463 107.005 120.081 107.992 121.938L109.758 120.999C108.995 119.564 108.552 117.329 108.531 114.181L106.531 114.194ZM107.875 121.469V122H109.875V121.469H107.875ZM108.875 121H99.75V123H108.875V121ZM92.2812 116.719C93.7662 116.719 95.1544 116.392 96.4291 115.732L95.5084 113.956C94.5331 114.462 93.463 114.719 92.2812 114.719V116.719ZM96.4419 115.725C97.717 115.04 98.7023 114.106 99.348 112.914L97.5895 111.961C97.1519 112.769 96.4705 113.439 95.4956 113.963L96.4419 115.725ZM99.4688 112.438V106.625H97.4688V112.438H99.4688ZM98.4688 105.625H95.0938V107.625H98.4688V105.625ZM95.0938 105.625C92.7421 105.625 90.7875 106.027 89.3538 106.958C87.8679 107.923 87.0505 109.385 86.8793 111.22L88.8707 111.405C88.9911 110.115 89.5228 109.233 90.443 108.636C91.4156 108.004 92.9245 107.625 95.0938 107.625V105.625ZM86.8767 111.254L86.8455 111.785L88.842 111.902L88.8733 111.371L86.8767 111.254ZM86.8438 111.844C86.8438 113.234 87.3463 114.433 88.3538 115.361L89.7087 113.889C89.1329 113.359 88.8438 112.704 88.8438 111.844H86.8438ZM88.3538 115.361C89.377 116.303 90.7274 116.719 92.2812 116.719V114.719C91.0851 114.719 90.2688 114.405 89.7087 113.889L88.3538 115.361ZM126.625 110.969L125.661 111.235L126.625 114.731L127.589 111.235L126.625 110.969ZM132.906 88.1875V87.1875H132.145L131.942 87.9217L132.906 88.1875ZM142.344 88.1875L143.291 88.5071L143.736 87.1875H142.344V88.1875ZM130.938 122V123H131.656L131.885 122.32L130.938 122ZM122.312 122L121.365 122.32L121.594 123H122.312V122ZM110.906 88.1875V87.1875H109.514L109.959 88.5071L110.906 88.1875ZM120.344 88.1875L121.308 87.9217L121.105 87.1875H120.344V88.1875ZM127.589 111.235L133.87 88.4533L131.942 87.9217L125.661 110.703L127.589 111.235ZM132.906 89.1875H142.344V87.1875H132.906V89.1875ZM141.396 87.8679L129.99 121.68L131.885 122.32L143.291 88.5071L141.396 87.8679ZM130.938 121H122.312V123H130.938V121ZM123.26 121.68L111.854 87.8679L109.959 88.5071L121.365 122.32L123.26 121.68ZM110.906 89.1875H120.344V87.1875H110.906V89.1875ZM119.38 88.4533L125.661 111.235L127.589 110.703L121.308 87.9217L119.38 88.4533ZM149.344 118.062L148.644 118.777L148.646 118.779L149.344 118.062ZM146.656 95.9375L147.553 96.3791L147.555 96.3763L146.656 95.9375ZM152.219 89.75L152.733 90.6075L152.735 90.6062L152.219 89.75ZM171.375 91.9375L170.634 92.6094L170.637 92.6123L171.375 91.9375ZM175.375 108.031V109.031H176.375V108.031H175.375ZM153.844 108.031V107.031H152.703L152.852 108.162L153.844 108.031ZM156.469 113.344L155.794 114.082L155.799 114.087L156.469 113.344ZM170.219 111.562L170.965 110.896L170.165 110.001L169.429 110.949L170.219 111.562ZM174.656 116.531L175.473 117.108L175.932 116.459L175.402 115.865L174.656 116.531ZM169.156 121.031L169.574 121.94L169.58 121.937L169.156 121.031ZM156.062 96.6875L155.331 96.0061L155.324 96.0129L156.062 96.6875ZM153.938 101.875L152.947 101.737L152.789 102.875H153.938V101.875ZM166.5 101.875V102.875H167.5V101.875H166.5ZM166.5 101.156H167.5V101.146L167.5 101.135L166.5 101.156ZM164.875 96.5312L164.148 97.2175L164.154 97.2244L164.875 96.5312ZM161.469 121.625C156.732 121.625 152.954 120.181 150.041 117.346L148.646 118.779C151.984 122.028 156.289 123.625 161.469 123.625V121.625ZM150.044 117.348C147.163 114.526 145.688 110.748 145.688 105.906H143.688C143.688 111.189 145.316 115.516 148.644 118.777L150.044 117.348ZM145.688 105.906V105.031H143.688V105.906H145.688ZM145.688 105.031C145.688 101.767 146.318 98.89 147.553 96.3791L145.759 95.4959C144.37 98.3183 143.688 101.504 143.688 105.031H145.688ZM147.555 96.3763C148.789 93.8498 150.515 91.9384 152.733 90.6075L151.704 88.8925C149.131 90.4366 147.149 92.6502 145.758 95.4987L147.555 96.3763ZM152.735 90.6062C154.982 89.2505 157.55 88.5625 160.469 88.5625V86.5625C157.221 86.5625 154.289 87.3328 151.702 88.8938L152.735 90.6062ZM160.469 88.5625C164.866 88.5625 168.211 89.9385 170.634 92.6094L172.116 91.2656C169.247 88.1032 165.322 86.5625 160.469 86.5625V88.5625ZM170.637 92.6123C173.083 95.2876 174.375 99.1495 174.375 104.344H176.375C176.375 98.8297 175 94.4207 172.113 91.2627L170.637 92.6123ZM174.375 104.344V108.031H176.375V104.344H174.375ZM175.375 107.031H153.844V109.031H175.375V107.031ZM152.852 108.162C153.171 110.572 154.14 112.569 155.794 114.082L157.144 112.606C155.881 111.451 155.1 109.907 154.835 107.9L152.852 108.162ZM155.799 114.087C157.486 115.607 159.6 116.344 162.062 116.344V114.344C160.025 114.344 158.41 113.747 157.138 112.601L155.799 114.087ZM162.062 116.344C165.819 116.344 168.842 114.965 171.008 112.176L169.429 110.949C167.679 113.202 165.265 114.344 162.062 114.344V116.344ZM169.473 112.229L173.91 117.197L175.402 115.865L170.965 110.896L169.473 112.229ZM173.84 115.954C172.594 117.717 170.902 119.109 168.732 120.126L169.58 121.937C172.036 120.787 174.01 119.179 175.473 117.108L173.84 115.954ZM168.739 120.123C166.57 121.119 164.152 121.625 161.469 121.625V123.625C164.41 123.625 167.117 123.069 169.574 121.94L168.739 120.123ZM160.438 93.875C158.395 93.875 156.662 94.576 155.331 96.0061L156.794 97.3689C157.713 96.3823 158.897 95.875 160.438 95.875V93.875ZM155.324 96.0129C154.04 97.4183 153.277 99.3624 152.947 101.737L154.928 102.013C155.223 99.8876 155.877 98.3733 156.801 97.3621L155.324 96.0129ZM153.938 102.875H166.5V100.875H153.938V102.875ZM167.5 101.875V101.156H165.5V101.875H167.5ZM167.5 101.135C167.455 98.9692 166.863 97.1557 165.596 95.8381L164.154 97.2244C164.971 98.0735 165.462 99.3433 165.5 101.177L167.5 101.135ZM165.602 95.845C164.325 94.4908 162.553 93.875 160.438 93.875V95.875C162.156 95.875 163.342 96.3633 164.148 97.2175L165.602 95.845ZM190.906 114.719L190.109 114.115L188.896 115.719H190.906V114.719ZM207.438 114.719H208.438V113.719H207.438V114.719ZM207.438 122V123H208.438V122H207.438ZM179.375 122H178.375V123H179.375V122ZM179.375 116.5L178.578 115.896L178.375 116.164V116.5H179.375ZM195.281 95.5L196.078 96.1038L197.293 94.5H195.281V95.5ZM179.844 95.5H178.844V96.5H179.844V95.5ZM179.844 88.1875V87.1875H178.844V88.1875H179.844ZM206.938 88.1875H207.938V87.1875H206.938V88.1875ZM206.938 93.5312L207.735 94.1346L207.938 93.8669V93.5312H206.938ZM190.906 115.719H207.438V113.719H190.906V115.719ZM206.438 114.719V122H208.438V114.719H206.438ZM207.438 121H179.375V123H207.438V121ZM180.375 122V116.5H178.375V122H180.375ZM180.172 117.104L196.078 96.1038L194.484 94.8962L178.578 115.896L180.172 117.104ZM195.281 94.5H179.844V96.5H195.281V94.5ZM180.844 95.5V88.1875H178.844V95.5H180.844ZM179.844 89.1875H206.938V87.1875H179.844V89.1875ZM205.938 88.1875V93.5312H207.938V88.1875H205.938ZM206.14 92.9279L190.109 114.115L191.704 115.322L207.735 94.1346L206.14 92.9279Z" fill="#00691D"/>
</svg>
